<?xml version="1.0" encoding="utf-8"?>
<!-- Generator: Adobe Illustrator 25.0.0, SVG Export Plug-In . SVG Version: 6.00 Build 0)  -->
<svg version="1.1" id="Layer_1" xmlns="http://www.w3.org/2000/svg" xmlns:xlink="http://www.w3.org/1999/xlink" x="0px" y="0px"
	 viewBox="0 0 902 852" style="enable-background:new 0 0 902 852;" xml:space="preserve">
<style type="text/css">
	.st0{fill:#FFFFFF;}
</style>
<g transform="translate(1 1)">
	<g>
		<g>
			<path class="st0" d="M420,449.7v80c0,7.4,6,13.3,13.3,13.3h53.3c7.4,0,13.3-6,13.3-13.3v-79.4c0-21.8-17.2-40.1-38.9-40.6
				C437.9,409.1,420,426.6,420,449.7z M446,450c0-8.4,5.8-13.8,14.5-13.4c7,0.4,12.5,6.4,12.5,13.4v67h-27L446,450L446,450z"/>
			<path class="st0" d="M300,530.3v79.4c0,7.4,6,13.3,13.3,13.3h53.3c7.4,0,13.3-6,13.3-13.3v-80c0-23-17.9-40.5-41.1-40
				C317.2,490.2,300,508.5,300,530.3z M353,597h-27v-66.6c0-7.1,5.5-13,12.5-13.4c8.7-0.5,14.5,5,14.5,13.3L353,597L353,597z"/>
			<path class="st0" d="M553.3,450h53.3c7.4,0,13.3-6,13.3-13.3v-79.4c0-21.8-17.2-40.1-38.9-40.6c-23.2-0.5-41.1,17-41.1,40v80
				C540,444.7,545.3,450,553.3,450z M566,356c0-8.4,5.8-13.8,14.5-13.4c7,0.4,12.5,6.4,12.5,13.4v67h-27L566,356L566,356z"/>
			<path class="st0" d="M366,357h54.1c7.1,0,13-5.4,13.4-12.5c0.5-8.7-5-14.5-13.5-14.5h-54c-8.1,0-13.5,5.4-13.5,13.5
				C352.5,351.6,357.9,357,366,357z"/>
			<path class="st0" d="M313,356.7c8,0,13.3-5.3,13.3-13.3S321,330,313,330c-8,0-13.3,5.3-13.3,13.3
				C299.7,351.3,305,356.7,313,356.7z"/>
			<path class="st0" d="M499.3,597h54.1c7.1,0,13-5.4,13.4-12.5c0.5-8.7-5-14.5-13.5-14.5h-54c-8.4,0-13.9,5.9-13.5,14.5
				C486.2,591.6,492.2,597,499.3,597z"/>
			<path class="st0" d="M606.3,570c-8,0-13.3,5.3-13.3,13.3c0,8,5.3,13.3,13.3,13.3s13.3-5.3,13.3-13.3
				C619.7,575.3,614.3,570,606.3,570z"/>
			<path class="st0" d="M846.7,596H833v-26.6c0-7.1-5.5-13-12.5-13.4c-8.7-0.5-14.5,5-14.5,13.3V596l-26,1v-26.6
				c0-7.1-5.5-13-12.5-13.4c-8.7-0.5-14.5,5-14.5,13.3V597l-26-1v-26.6c0-7.1-5.5-13-12.5-13.4c-8.7-0.5-14.5,5-14.5,13.3V596h-27
				V276.2v-89.3l38.7-77.3c2.1-3.1,2.5-7.1,1.3-10.6V36.3c0-7.4-6-13.3-13.3-13.3h-53.3C639,23,633,29,633,36.3V90h-27V36.3
				c0-7.4-6-13.3-13.3-13.3h-52.3C533,23,527,29,527,36.3V90h-27V36.3c0-7.4-6-13.3-13.3-13.3h-53.3C426,23,420,29,420,36.3V90h-27
				V36.3c0-7.4-6-13.3-13.3-13.3h-53.3C319,23,313,29,313,36.3V90h-27V36.3c0-7.4-6-13.3-13.3-13.3h-53.3C212,23,206,29,206,36.3
				v63.8c-0.3,2-0.3,4.1,0.3,6c0.5,2.4,1.5,4.4,3,6l36.7,73.4v90.6V596h-26v-26.6c0-7.1-5.5-13-12.5-13.4c-8.7-0.5-14.5,5-14.5,13.3
				V596h-26v-26.6c0-7.1-5.5-13-12.5-13.4c-8.7-0.5-14.5,5-14.5,13.3V596h-27v-26.6c0-7.1-5.5-13-12.5-13.4
				c-8.7-0.5-14.5,5-14.5,13.3V596H73.3C66,596,60,602,60,609.3v200.3c0,7.4,6,13.3,13.3,13.3H260h160h80h160h186.7
				c7.4,0,13.3-6,13.3-13.3V609.3C860,602,854,596,846.7,596z M592.5,223c-7.1,0.4-12.5,6.4-12.5,13.4V263h-40v-26.6
				c0-7.1-5.5-13-12.5-13.4c-8.7-0.5-14.5,5-14.5,13.3V263h-40v-26.6c0-7.1-5.5-13-12.5-13.4c-8.7-0.5-14.5,5-14.5,13.3V263h-39
				v-26.6c0-7.1-5.5-13-12.5-13.4c-8.7-0.5-14.5,5-14.5,13.3V263h-40v-26.6c0-7.1-5.5-13-12.5-13.4c-8.7-0.5-14.5,5-14.5,13.3V263
				h-40v-67h373v67h-39v-26.7C607,228,601.2,222.6,592.5,223z M660,50h27v40h-27V50z M553,50h27v40h-27V50z M446,50h27v40h-27V50z
				 M340,50h27v40h-27V50z M233,50h27v40h-27V50z M273,117h53h53h53h53h53h53h53h31.8l-26.5,53H267.7l-26.5-53H273L273,117z M86,623
				h160v173H86C86,796,86,623,86,623z M274,610V290h372v319.6V796H513V676.7c0-29.3-24-53.3-53.3-53.3c-29.3,0-53.3,24-53.7,53.3
				V797H273V610H274z M433,797V677.4c0-13.9,10.5-25.9,24.4-27c15.5-1.2,28.6,11.2,28.6,26.6v120L433,797L433,797z M833,796H673V623
				h160V796z"/>
		</g>
	</g>
</g>
</svg>
